<svg xmlns="http://www.w3.org/2000/svg" viewBox="0 0 75 92.71"><defs><style>.cls-1{fill:#fff;}</style></defs><g id="Layer_2" data-name="Layer 2"><g id="Layer_1-2" data-name="Layer 1"><g id="_ffffffff" data-name="#ffffffff"><path class="cls-1" d="M51.4.09a1.73,1.73,0,0,1,1.44.14A1.15,1.15,0,0,1,53,1.88a1.42,1.42,0,0,1-.88.34L52,2.46a4.29,4.29,0,0,1-.77-.24,3.11,3.11,0,0,1,.26-.59c.22-.3.71-.15.91-.48-.17-.38-.62-.29-.95-.28Z"/><path class="cls-1" d="M47.89,2.6a15.65,15.65,0,0,1,1.48-1.09l1.21.32c.27.56.55,1.11.8,1.68-.47-.09-.92-.23-1.38-.35-.08-.17-.17-.35-.26-.52L49.26,3Z"/><path class="cls-1" d="M38,2l1.81,0a3.6,3.6,0,0,0,0,1.27c0,1.48.06,3,.07,4.44a1.92,1.92,0,0,1-1.41,1.79,2.62,2.62,0,0,1-3-.83,3.84,3.84,0,0,1-.32-2.07c-.05-1.51,0-3-.13-4.52.61,0,1.21,0,1.82,0a2.42,2.42,0,0,0-.06.89c0,1.52.06,3,.08,4.55,0,.74,1.33.73,1.28,0C38,5.66,38,3.84,38,2Z"/><path class="cls-1" d="M41.1,2c.63.09,1.26.18,1.89.24a4.39,4.39,0,0,0,.2,1c.14.56.18,1.13.29,1.7.25-.46.4-1,.65-1.44a5.79,5.79,0,0,0,.52-1.06c.62.1,1.24.17,1.86.25-.8,1.44-1.64,2.87-2.43,4.32-.17,1-.28,2-.39,2.94-.57-.09-1.15-.15-1.72-.23A10.31,10.31,0,0,0,42.26,8a3.69,3.69,0,0,0,.05-1.55C41.89,5,41.55,3.51,41.1,2Z"/><path class="cls-1" d="M29.07,2.89c1.49-.22,3-.46,4.46-.69.08.53.17,1.06.24,1.59L32.39,4c.2,1.53.46,3.05.69,4.57a6.55,6.55,0,0,0,.25,1.32l-1.7.26c-.28-2-.6-3.92-.9-5.89l-1.42.22C29.22,3.94,29.13,3.42,29.07,2.89Z"/><path class="cls-1" d="M17.29,3.48c.48-.12,1-.26,1.44-.37,0,.49-.06,1-.1,1.46l-1.22.66A17.15,17.15,0,0,1,17.29,3.48Z"/><path class="cls-1" d="M45.83,10.37c.69-2.43,1.3-4.87,2-7.31,1.12.29,2.23.63,3.36.87-.11.56-.29,1.1-.42,1.65-.58-.19-1.17-.32-1.75-.48-.13.4-.22.82-.34,1.23.54.15,1.08.31,1.63.41-.15.56-.3,1.12-.44,1.68a12.94,12.94,0,0,0-1.61-.48l-.33,1.24a17.38,17.38,0,0,0,1.92.48c-.16.55-.32,1.11-.45,1.67C48.2,11,47,10.69,45.83,10.37Z"/><path class="cls-1" d="M23.81,4.37l1.53-.55c.81,2.45,1.76,4.86,2.57,7.32-1.35-.69-2.64-1.48-4-2.2.36,1,.7,2,1.1,3-.51.17-1,.36-1.54.55-.77-2.44-1.74-4.82-2.53-7.25l.36.18q1.88,1.21,3.77,2.41C24.66,6.69,24.3,5.5,23.81,4.37Z"/><path class="cls-1" d="M52.86,4.48H53c.43,1.52.83,3,1.26,4.56.49-1.13,1-2.26,1.4-3.42.49.23,1,.43,1.51.63-1.07,2.36-2,4.79-3,7.16-.55-1.41-1-2.87-1.48-4.3q-.64,1.47-1.23,3c-.49-.23-1-.44-1.5-.62C51,9.17,51.86,6.8,52.86,4.48Z"/><path class="cls-1" d="M15.7,5.91c.37-.19.73-.4,1.11-.58.57.24,1.15.44,1.71.69-.41.23-.83.45-1.25.67l-.55-.2-.15.59c-.42.21-.83.46-1.26.64C15.43,7.12,15.57,6.51,15.7,5.91Z"/><path class="cls-1" d="M16.33,7.72c.53-.27,1.05-.55,1.57-.84,1.73,1.94,3.52,3.83,5.27,5.75-.53.26-1,.56-1.57.82a6.08,6.08,0,0,0-.81-.95c-.44.23-.89.47-1.33.72a10,10,0,0,0,.35,1.22c-.53.25-1,.55-1.57.83-.52-2.35-1.16-4.67-1.72-7a2.1,2.1,0,0,0-.19-.53m2,1.73c.24.74.51,1.48.75,2.22l.7-.37C19.27,10.67,18.79,10,18.28,9.45Z"/><path class="cls-1" d="M59.06,10.61a2.29,2.29,0,0,1,2.09-1.67,3.21,3.21,0,0,1,2.59,1.62l-1.26.94a1.88,1.88,0,0,0-1.23-.87.63.63,0,0,0-.48,1,4.53,4.53,0,0,1,.88,1.82,2.34,2.34,0,0,1-1.21,2.22,2.21,2.21,0,0,1-2.16,0A3.77,3.77,0,0,1,56.7,14c.45-.33.87-.71,1.31-1.05a3.58,3.58,0,0,0,1.12,1.23.6.6,0,0,0,.83-.34,2.43,2.43,0,0,0-.44-1.05A2.73,2.73,0,0,1,59.06,10.61Z"/><path class="cls-1" d="M12.4,10.22l1.42-1.06c0,.14.08.27.13.41.88,2.12,1.77,4.23,2.65,6.36a4.23,4.23,0,0,0,.22.42c-.49.36-1,.71-1.45,1.09a1.85,1.85,0,0,0-.29-.33c-1.93-1.52-3.83-3.08-5.76-4.6.49-.32.95-.69,1.42-1a13.15,13.15,0,0,0,1.14,1c1,.76,1.83,1.7,2.77,2.52-.41-.83-.85-1.65-1.27-2.47S12.78,11,12.4,10.22Z"/><path class="cls-1" d="M64.71,11.93a6.26,6.26,0,0,0,.49-.66c.44.39.91.75,1.37,1.12a13.5,13.5,0,0,0-1.11,1.29c-1.21,1.54-2.48,3-3.66,4.58l-1.34-1.07Z"/><path class="cls-1" d="M67,14.15a8.54,8.54,0,0,1,.88-.82c-.14,1.61-.42,3.21-.58,4.82.88-.86,1.76-1.71,2.6-2.61.39.39.77.79,1.17,1.16a1.93,1.93,0,0,0-.36.28c-1.39,1.42-2.83,2.8-4.22,4.22a12.26,12.26,0,0,1-1,.93c.06-1.52.21-3,.3-4.54-.73.79-1.57,1.47-2.25,2.3-.37-.39-.75-.78-1.15-1.15C64,17.21,65.52,15.69,67,14.15Z"/><path class="cls-1" d="M35.15,13.85A33.08,33.08,0,0,1,49.2,78a32.6,32.6,0,0,1-11.82,1.9,13.42,13.42,0,0,0-5,.78,24.69,24.69,0,0,0-4.19,2.14c-3.35,1.93-6.69,3.87-10,5.79V80.32c0-.81,0-1.63-.07-2.44a13.59,13.59,0,0,0-3.77-8.11A33.07,33.07,0,0,1,14,24.13a34,34,0,0,1,5.35-4.59,33,33,0,0,1,15.81-5.69M54.47,24.58c-.11.17-.17.46-.43.41a38.29,38.29,0,0,0-14.11,3.36,57.46,57.46,0,0,0-11.26,6.4,51.45,51.45,0,0,0-8.54,7.67,29.64,29.64,0,0,0-5.85,9.36,12,12,0,0,0-.7,6.11,7.13,7.13,0,0,0,2.35,4.22,10.86,10.86,0,0,0,5.78,2.4,26.54,26.54,0,0,0,9.18-.6,48.47,48.47,0,0,0,11.38-4.24,13.65,13.65,0,0,0,1.67-.93,1,1,0,0,1,0-.17,24.88,24.88,0,0,0,3-1.58,18.15,18.15,0,0,0,2-29.29c-.09-.07-.34-.27-.11-.31A31.88,31.88,0,0,1,54,26.64c.27.26.29.68.51,1a3.13,3.13,0,0,0,4.61.85,6.78,6.78,0,0,0,.76-.84,2.4,2.4,0,0,1,.87.41,6.76,6.76,0,0,1,3.06,3.84,10.6,10.6,0,0,1-.22,6.4A26.8,26.8,0,0,1,60.79,44a7.07,7.07,0,0,0-.58,1,2.28,2.28,0,0,0,.63-.68,23.36,23.36,0,0,0,4-8.15,9.67,9.67,0,0,0-.43-6.39,7.37,7.37,0,0,0-3.54-3.45c-.2-.12-.48-.2-.56-.45s-.08-.56-.16-.83a3.11,3.11,0,0,0-3-2.18,3,3,0,0,0-2.68,1.66m-22.25-.4a18.7,18.7,0,0,0-6.12,3.13,17.7,17.7,0,0,0-6,8.59A65.68,65.68,0,0,1,39.36,23.62a17.94,17.94,0,0,0-7.14.56M40,24.13a62.7,62.7,0,0,0-20,12.78,2.34,2.34,0,0,0-.67,1.54,62.37,62.37,0,0,1,11.77-9.21,64.3,64.3,0,0,1,10.75-5.15,5,5,0,0,0-1.09-.21,3.22,3.22,0,0,0-.78.25m2.82.4a58.25,58.25,0,0,0-14.1,7.08,57.11,57.11,0,0,0-9.25,7.74,1.69,1.69,0,0,0-.37,1.29c1-1.1,2.12-2.17,3.25-3.19A59,59,0,0,1,43.53,25a1.58,1.58,0,0,0,.44-.2c-.35-.13-.72-.37-1.11-.23M30.07,67.8c.06,2.06,0,4.12,0,6.18a2.12,2.12,0,0,0,1.25,1.81,3.22,3.22,0,0,0,2.76-.06,2.07,2.07,0,0,0,1.08-1.84v-5a5,5,0,0,1,.05-1.09c-.65,0-1.3,0-2,0,.09,1.88,0,3.77,0,5.65,0,.28,0,.66-.27.79s-1.12.08-1.1-.46c0-1.81,0-3.63,0-5.45a2.33,2.33,0,0,1,.07-.53c-.65,0-1.3,0-2,0m6.22,0c.05.87,0,1.75,0,2.63,0,1.87,0,3.73,0,5.6.64,0,1.28,0,1.91,0a4.21,4.21,0,0,1,0-.5V68.21a1.2,1.2,0,0,1,.07-.42c-.64,0-1.29,0-1.93,0m2.6,0c0,.58,0,1.16,0,1.75.52,0,1.05,0,1.57,0v5.32a6.32,6.32,0,0,1,0,1.15q.95,0,1.89,0a12.19,12.19,0,0,1,0-1.48c0-1.67,0-3.34,0-5,.5,0,1,0,1.52,0,0-.59,0-1.17,0-1.76Z"/><path class="cls-1" d="M6.13,14.7a.52.52,0,0,1,.68-.61c.49.41.19,1.14.43,1.65.92.85,1.88,1.67,2.81,2.51a4.16,4.16,0,0,1,1.16,1.28,2.05,2.05,0,0,1-.06,1.68,2.85,2.85,0,0,1-1.88,1.57,2,2,0,0,1-1.71-.47c-1.39-1.22-2.74-2.47-4.15-3.67.38-.43.78-.85,1.15-1.3q1.82,1.61,3.62,3.22a4.35,4.35,0,0,0,.67.55.75.75,0,0,0,.8-.86,6.15,6.15,0,0,0-.86-.83c-1.14-1-2.24-2-3.4-3,.37-.42.76-.84,1.13-1.27l.25.09C6.77,14.84,6.21,15.07,6.13,14.7Z"/><path class="cls-1" d="M71.91,18.36l.34-.31c.34.46.68.93,1,1.39-.76.5-1.46,1.06-2.19,1.59l.69.93c.72-.54,1.45-1.06,2.15-1.62.38.44.68.94,1.06,1.39a1.68,1.68,0,0,0-.33.16L69.2,26l-.29.26c-.35-.46-.68-.93-1-1.38.89-.6,1.72-1.27,2.59-1.9L69.77,22c-.87.62-1.7,1.29-2.58,1.9-.33-.46-.66-.92-1-1.36a4.34,4.34,0,0,0,.77-.52Z"/><path class="cls-1" d="M2.52,19.8l1.34.89-.79,1.19c1.67,1.09,3.29,2.24,5,3.3-.34.46-.63.94-1,1.41-1.63-1.14-3.3-2.21-4.94-3.33l-.81,1.2c-.45-.29-.88-.59-1.33-.89Z"/><path class="cls-1" d="M47.55,27.84a.55.55,0,0,1,.55.11,17.57,17.57,0,0,1,5.37,7.17,18.12,18.12,0,0,1,1.27,6.22,17.48,17.48,0,0,1-3.18,10.3c-.08.1-.16.22-.3.23-1.1.06-2.21-.06-3.3.06-.59.48-1.12,1-1.74,1.48a14.71,14.71,0,0,1-6.93,2.87c2.82-2.1,5.68-4.17,8.49-6.28,0,0-.05-.15-.06-.21-1.64,0-3.27,0-4.91,0a.84.84,0,0,0-.74.37c-1.35,1.76-2.69,3.53-4,5.3a5.16,5.16,0,0,1-.77.91,3,3,0,0,1-.47-.54c-1.44-1.9-2.89-3.78-4.32-5.68a.81.81,0,0,0-.75-.36c-1.64,0-3.27,0-4.91,0l0,.21c2.55,1.91,5.13,3.79,7.69,5.69a3.61,3.61,0,0,1,.72.57,14.57,14.57,0,0,1-6-2.27,20.6,20.6,0,0,1-2.58-2.08c-.83-.09-1.68,0-2.53,0a12.78,12.78,0,0,0-1.64,0c0,.07,0,.2,0,.27a18,18,0,0,0,9.07,6.72,18.64,18.64,0,0,0,10.57.32,39.57,39.57,0,0,1-5.78,1.5c-1.62.32-3.25.59-4.89.75a19,19,0,0,1-3.54.09,12.83,12.83,0,0,1-6.23-2,6.9,6.9,0,0,1-2.81-4.49,10.51,10.51,0,0,1,1.06-6.23,33,33,0,0,1,5.86-8.13,42.26,42.26,0,0,1,8.49-6.93,56.42,56.42,0,0,1,13.33-5.92m-18,15.48c0,.11-.11.31,0,.37.33.07.67.08,1,.16s.49.13.6-.12a20.91,20.91,0,0,1,5.16-5.41,18.12,18.12,0,0,0-3-1.49,13.8,13.8,0,0,0-3.81,6.49m8.63-5a20.72,20.72,0,0,1,5.1,5.34c.08.09.14.26.29.24l1.3-.2c.19,0,.14-.19.11-.31a13.45,13.45,0,0,0-3.84-6.56,18.23,18.23,0,0,0-3,1.49m-6,5.81A25.83,25.83,0,0,1,37,45.83c.28.18.58,0,.84-.13a27.3,27.3,0,0,1,4.56-1.57,19.18,19.18,0,0,0-4.8-5c-.12-.06-.28-.27-.43-.14a18.89,18.89,0,0,0-5,5.14m-7,.41a4.12,4.12,0,0,0,.43,4.26,20.43,20.43,0,0,0,2.71,0,15,15,0,0,1,0-4.18,1.38,1.38,0,0,0-.8-.13c-.78,0-1.55,0-2.33,0m21.11,0c0,.43.08.87.1,1.31a19.11,19.11,0,0,1-.13,2.93c.9.06,1.81,0,2.71,0a4.2,4.2,0,0,0,.43-4.29,21.51,21.51,0,0,0-3.11,0m-17,.12a12,12,0,0,0-.1,2.87c.38-.94.84-1.84,1.3-2.74a9.78,9.78,0,0,0-1.2-.13M44,44.83c.47.88.89,1.79,1.31,2.7a11.74,11.74,0,0,0-.1-2.84c-.4,0-.81.09-1.21.14m-12.65.51a17.61,17.61,0,0,0-1.51,3.48c.72.07,1.45,0,2.17,0,.24,0,.52,0,.73-.13a29.57,29.57,0,0,1,3.35-2.18,21.52,21.52,0,0,0-4.41-1.46c-.18-.08-.25.15-.33.26m9.5.26a16,16,0,0,0-2.44.94A37.32,37.32,0,0,1,42,48.84c.9,0,1.81,0,2.72,0a19.11,19.11,0,0,0-1.48-3.41,1.1,1.1,0,0,0-.26-.34A14.83,14.83,0,0,0,40.88,45.6Z"/><path class="cls-1" d="M66.74,74.34a2.13,2.13,0,0,1,1.39-1,1.55,1.55,0,0,1,1.29.51c.69.68,1.37,1.37,2.06,2.06a1.45,1.45,0,0,1,.43,1.35,2.07,2.07,0,0,1-1,1.28,1.48,1.48,0,0,1-1.73-.16c-.7-.66-1.37-1.37-2.06-2a1.58,1.58,0,0,1-.42-2m1.41.33c-.19.11-.41.41-.17.59.68.69,1.36,1.38,2.07,2,.28.28.81-.25.52-.54-.66-.66-1.34-1.32-2-2A.31.31,0,0,0,68.15,74.67Z"/><path class="cls-1" d="M62.64,77.87,63.77,77c.67,1,1.42,1.92,2.13,2.88l.42-.32c.22.36.5.69.75,1l-.41.29a10.34,10.34,0,0,0,.64.84c-.37.25-.72.54-1.09.79a8.5,8.5,0,0,0-.6-.84c-.5.38-1,.75-1.51,1.14-.29-.39-.61-.76-.87-1.17-.23-1.26-.39-2.54-.59-3.8m1.41,1.6c.08.54.18,1.08.27,1.61l.6-.45Z"/><path class="cls-1" d="M68.06,79.24a.74.74,0,0,1,1.07.76.76.76,0,0,1-1.24.45A.73.73,0,0,1,68.06,79.24Z"/><path class="cls-1" d="M58.12,80.86A11.38,11.38,0,0,1,59.58,80l.64,1.14c-.38.23-.79.43-1.17.68-.16.08-.08.28,0,.4.44.77.88,1.56,1.33,2.33a.23.23,0,0,0,.36.07c.39-.21.77-.45,1.16-.65l.64,1.13a15.71,15.71,0,0,1-1.51.81,1.54,1.54,0,0,1-1.77-.68l-1.41-2.48A1.56,1.56,0,0,1,58.12,80.86Z"/><path class="cls-1" d="M55.31,82.18a1.56,1.56,0,0,1,1.84.69c.43.9.82,1.83,1.25,2.74a1.58,1.58,0,0,1-.06,1.45,2.2,2.2,0,0,1-2.2.94,1.54,1.54,0,0,1-1.06-.86l-1.17-2.59a1.54,1.54,0,0,1,0-1.34,2.21,2.21,0,0,1,1.4-1m.09,1.29c-.21.09-.44.33-.29.56.37.84.75,1.68,1.13,2.51.19.57,1.22.12,1-.4-.37-.85-.76-1.69-1.14-2.53C56,83.32,55.61,83.34,55.4,83.47Z"/><path class="cls-1" d="M51.52,83.77l1.29-.43a10,10,0,0,0,.43,1.41c.48,1.39.91,2.8,1.43,4.18l-1.27.43c-.24-.79-.52-1.58-.78-2.37-.29.09-.58.19-.86.3.3.77.52,1.57.82,2.35-.43.13-.85.27-1.27.42-.41-1.36-.89-2.69-1.33-4-.19-.52-.32-1-.55-1.55L50.71,84c.17.68.44,1.33.65,2l.84-.28C52,85.09,51.78,84.42,51.52,83.77Z"/><path class="cls-1" d="M46.07,85.24c.45-.08.89-.18,1.34-.27.27,1.44.61,2.87.91,4.31.11.48.18,1,.33,1.45a12,12,0,0,0-1.32.29c-.27-1.46-.62-2.91-.92-4.37C46.3,86.18,46.22,85.7,46.07,85.24Z"/><path class="cls-1" d="M43,85.74c.46,0,.91-.11,1.37-.19.72,1.9,1.5,3.78,2.29,5.65-.47,0-.93.11-1.39.18a4.31,4.31,0,0,0-.34-.93l-1.16.16a8.26,8.26,0,0,0-.08,1c-.46.05-.91.11-1.36.18.23-2,.47-4,.67-6m.93,1.77c0,.62,0,1.24,0,1.86l.61-.1C44.26,88.69,44.1,88.09,43.89,87.51Z"/><path class="cls-1" d="M37.85,86.07c.69,0,1.39-.08,2.08-.07a1.4,1.4,0,0,1,1.22.76,2.6,2.6,0,0,1,.19,1.11c0,.88.1,1.77.1,2.66a1.34,1.34,0,0,1-1.16,1.3c-.71.1-1.44.07-2.16.13,0-.83-.06-1.65-.09-2.48h-.38c0-.36,0-.73-.06-1.09l.39,0c0-.77-.06-1.54-.13-2.3m1.37,1.24c0,.32,0,.65,0,1h.44c0,.36,0,.73.06,1.09l-.42,0,0,1.19c.25-.06.64.09.77-.19,0-.85-.07-1.69-.09-2.54,0-.19,0-.4-.12-.55A2.34,2.34,0,0,0,39.22,87.31Z"/><path class="cls-1" d="M57.4,88a.52.52,0,0,1,.82.3.55.55,0,0,1-.9.48A.5.5,0,0,1,57.4,88Z"/><path class="cls-1" d="M44.27,91.77a.53.53,0,0,1,.8.43.55.55,0,0,1-.81.44A.5.5,0,0,1,44.27,91.77Z"/></g></g></g></svg>